<?xml version="1.0" encoding="UTF-8" standalone="no"?>
<svg
   xmlns:dc="http://purl.org/dc/elements/1.1/"
   xmlns:cc="http://creativecommons.org/ns#"
   xmlns:rdf="http://www.w3.org/1999/02/22-rdf-syntax-ns#"
   xmlns:svg="http://www.w3.org/2000/svg"
   xmlns="http://www.w3.org/2000/svg"
   xmlns:sodipodi="http://sodipodi.sourceforge.net/DTD/sodipodi-0.dtd"
   xmlns:inkscape="http://www.inkscape.org/namespaces/inkscape"
   viewBox="0 -256 1850 1850"
   id="svg3025"
   version="1.1"
   inkscape:version="0.48.3.1 r9886"
   width="14"
   height="14"
   sodipodi:docname="fire_font_awesome.svg">
  <metadata
     id="metadata3035">
    <rdf:RDF>
      <cc:Work
         rdf:about="">
        <dc:format>image/svg+xml</dc:format>
        <dc:type
           rdf:resource="http://purl.org/dc/dcmitype/StillImage" />
      </cc:Work>
    </rdf:RDF>
  </metadata>
  <defs
     id="defs3033" />
  <sodipodi:namedview
     pagecolor="#ffffff"
     bordercolor="#666666"
     borderopacity="1"
     objecttolerance="10"
     gridtolerance="10"
     guidetolerance="10"
     inkscape:pageopacity="0"
     inkscape:pageshadow="2"
     inkscape:window-width="640"
     inkscape:window-height="480"
     id="namedview3031"
     showgrid="false"
     inkscape:zoom="0.13169643"
     inkscape:cx="896"
     inkscape:cy="896"
     inkscape:window-x="0"
     inkscape:window-y="25"
     inkscape:window-maximized="0"
     inkscape:current-layer="svg3025" />
  <g
     transform="matrix(1,0,0,-1,205.01695,1320.644)"
     id="g3027">
    <path
       d="m 1408,-160 v -64 q 0,-13 -9.5,-22.5 -9.5,-9.5 -22.5,-9.5 H 32 q -13,0 -22.5,9.5 Q 0,-237 0,-224 v 64 q 0,13 9.5,22.5 9.5,9.5 22.5,9.5 h 1344 q 13,0 22.5,-9.5 9.5,-9.5 9.5,-22.5 z M 1152,896 q 0,-78 -24.5,-144 -24.5,-66 -64,-112.5 Q 1024,593 976,551.5 928,510 880,474 832,438 792.5,402 753,366 728.5,320.5 704,275 704,224 704,128 771,0 l -4,1 1,-1 Q 678,41 608,83 538,125 469.5,183 401,241 356,305.5 311,370 283.5,456 256,542 256,640 q 0,78 24.5,144 24.5,66 64,112.5 39.5,46.5 87.5,88 48,41.5 96,77.5 48,36 87.5,72 39.5,36 64,81.5 24.5,45.5 24.5,96.5 0,94 -66,224 l 3,-1 -1,1 q 90,-41 160,-83 70,-42 138.5,-100 68.5,-58 113.5,-122.5 45,-64.5 72.5,-150.5 27.5,-86 27.5,-184 z"
       id="path3029"
       inkscape:connector-curvature="0"
        />
  </g>
</svg>
